{
 "cells": [
  {
   "cell_type": "code",
   "execution_count": 22,
   "metadata": {},
   "outputs": [],
   "source": [
    "import mido\n",
    "import utils\n",
    "import midiFile"
   ]
  },
  {
   "cell_type": "code",
   "execution_count": 23,
   "metadata": {},
   "outputs": [],
   "source": [
    "midi_file_path = 'midis/TLS-0.mid'\n",
    "theMidiFile = midiFile.MidiFile(midi_file_path)"
   ]
  },
  {
   "cell_type": "code",
   "execution_count": 24,
   "metadata": {},
   "outputs": [
    {
     "data": {
      "text/plain": [
       "[[MetaMessage('time_signature', numerator=4, denominator=4, clocks_per_click=24, notated_32nd_notes_per_beat=8, time=0),\n",
       "  MetaMessage('key_signature', key='C', time=0),\n",
       "  MetaMessage('set_tempo', tempo=631577, time=0),\n",
       "  MetaMessage('track_name', name='Greensleeves', time=0),\n",
       "  MetaMessage('text', text='Traditional', time=0),\n",
       "  MetaMessage('copyright', text='Jim Paterson', time=0),\n",
       "  Message('program_change', channel=0, program=0, time=0),\n",
       "  Message('control_change', channel=0, control=121, value=0, time=0),\n",
       "  Message('control_change', channel=0, control=64, value=0, time=0),\n",
       "  Message('control_change', channel=0, control=10, value=63, time=0),\n",
       "  Message('control_change', channel=0, control=7, value=95, time=0),\n",
       "  Message('note_on', channel=0, note=60, velocity=77, time=0),\n",
       "  Message('note_on', channel=0, note=52, velocity=63, time=0),\n",
       "  Message('control_change', channel=0, control=121, value=0, time=0),\n",
       "  Message('control_change', channel=0, control=64, value=0, time=0),\n",
       "  Message('control_change', channel=0, control=10, value=63, time=0),\n",
       "  Message('control_change', channel=0, control=7, value=95, time=0),\n",
       "  MetaMessage('track_name', name='Piano', time=0),\n",
       "  Message('note_on', channel=0, note=48, velocity=64, time=0),\n",
       "  Message('note_off', channel=0, note=60, velocity=0, time=0.6019718281249999)],\n",
       " [Message('note_off', channel=0, note=52, velocity=0, time=0.56989955859375),\n",
       "  Message('note_off', channel=0, note=48, velocity=0, time=0),\n",
       "  Message('note_off', channel=0, note=60, velocity=0, time=0.032072269531249996),\n",
       "  Message('note_on', channel=0, note=67, velocity=90, time=0.029605171874999996),\n",
       "  Message('note_on', channel=0, note=60, velocity=77, time=0),\n",
       "  Message('note_on', channel=0, note=48, velocity=71, time=0)],\n",
       " [Message('note_on', channel=0, note=67, velocity=87, time=0.029605171874999996),\n",
       "  Message('note_off', channel=0, note=60, velocity=0, time=0.56989955859375),\n",
       "  Message('note_off', channel=0, note=48, velocity=0, time=0),\n",
       "  Message('note_off', channel=0, note=67, velocity=0, time=0.032072269531249996)],\n",
       " [Message('note_on', channel=0, note=60, velocity=73, time=0),\n",
       "  Message('note_on', channel=0, note=41, velocity=66, time=0),\n",
       "  Message('note_off', channel=0, note=69, velocity=0, time=0.6019718281249999),\n",
       "  Message('note_on', channel=0, note=69, velocity=83, time=0.029605171874999996)],\n",
       " [Message('note_off', channel=0, note=41, velocity=0, time=0),\n",
       "  Message('note_off', channel=0, note=69, velocity=0, time=0.032072269531249996),\n",
       "  Message('note_on', channel=0, note=67, velocity=81, time=0.029605171874999996),\n",
       "  Message('note_on', channel=0, note=60, velocity=75, time=0),\n",
       "  Message('note_on', channel=0, note=48, velocity=71, time=0)],\n",
       " [Message('note_off', channel=0, note=60, velocity=0, time=0),\n",
       "  Message('note_off', channel=0, note=48, velocity=0, time=0),\n",
       "  Message('note_on', channel=0, note=65, velocity=80, time=0.06167744140624999),\n",
       "  Message('note_on', channel=0, note=57, velocity=70, time=0),\n",
       "  Message('note_on', channel=0, note=41, velocity=68, time=0),\n",
       "  Message('note_off', channel=0, note=65, velocity=0, time=0.6019718281249999),\n",
       "  Message('note_on', channel=0, note=65, velocity=85, time=0.029605171874999996)],\n",
       " [Message('note_off', channel=0, note=41, velocity=0, time=0),\n",
       "  Message('note_off', channel=0, note=65, velocity=0, time=0.032072269531249996),\n",
       "  Message('note_on', channel=0, note=64, velocity=82, time=0.029605171874999996),\n",
       "  Message('note_on', channel=0, note=55, velocity=69, time=0),\n",
       "  Message('note_on', channel=0, note=48, velocity=76, time=0),\n",
       "  Message('note_off', channel=0, note=64, velocity=0, time=0.6019718281249999),\n",
       "  Message('note_on', channel=0, note=64, velocity=84, time=0.029605171874999996)],\n",
       " [Message('note_off', channel=0, note=48, velocity=0, time=0),\n",
       "  Message('note_off', channel=0, note=64, velocity=0, time=0.032072269531249996),\n",
       "  Message('note_on', channel=0, note=62, velocity=81, time=0.029605171874999996),\n",
       "  Message('note_on', channel=0, note=55, velocity=71, time=0),\n",
       "  Message('note_on', channel=0, note=43, velocity=69, time=0),\n",
       "  Message('note_off', channel=0, note=62, velocity=0, time=0.6019718281249999),\n",
       "  Message('note_on', channel=0, note=62, velocity=83, time=0.029605171874999996)],\n",
       " [Message('note_off', channel=0, note=43, velocity=0, time=0),\n",
       "  Message('note_off', channel=0, note=62, velocity=0, time=0.032072269531249996),\n",
       "  Message('note_on', channel=0, note=60, velocity=81, time=0.029605171874999996),\n",
       "  Message('note_on', channel=0, note=52, velocity=71, time=0),\n",
       "  Message('note_on', channel=0, note=48, velocity=75, time=0)],\n",
       " [Message('note_off', channel=0, note=52, velocity=0, time=0),\n",
       "  Message('note_off', channel=0, note=48, velocity=0, time=0),\n",
       "  Message('note_on', channel=0, note=67, velocity=94, time=0.06167744140624999),\n",
       "  Message('note_on', channel=0, note=60, velocity=80, time=0),\n",
       "  Message('note_on', channel=0, note=48, velocity=72, time=0),\n",
       "  Message('note_off', channel=0, note=67, velocity=0, time=0.6019718281249999),\n",
       "  Message('note_on', channel=0, note=67, velocity=83, time=0.029605171874999996),\n",
       "  Message('note_off', channel=0, note=60, velocity=0, time=0.56989955859375),\n",
       "  Message('note_off', channel=0, note=48, velocity=0, time=0),\n",
       "  Message('note_off', channel=0, note=67, velocity=0, time=0.032072269531249996),\n",
       "  Message('note_on', channel=0, note=65, velocity=81, time=0.029605171874999996),\n",
       "  Message('note_on', channel=0, note=57, velocity=71, time=0),\n",
       "  Message('note_on', channel=0, note=41, velocity=68, time=0)],\n",
       " [Message('note_on', channel=0, note=65, velocity=84, time=0.029605171874999996),\n",
       "  Message('note_off', channel=0, note=57, velocity=0, time=0.56989955859375),\n",
       "  Message('note_off', channel=0, note=41, velocity=0, time=0),\n",
       "  Message('note_off', channel=0, note=65, velocity=0, time=0.032072269531249996),\n",
       "  Message('note_on', channel=0, note=64, velocity=82, time=0.029605171874999996),\n",
       "  Message('note_on', channel=0, note=55, velocity=70, time=0),\n",
       "  Message('note_on', channel=0, note=43, velocity=73, time=0)],\n",
       " [Message('note_on', channel=0, note=64, velocity=84, time=0.029605171874999996),\n",
       "  Message('note_off', channel=0, note=55, velocity=0, time=0.56989955859375),\n",
       "  Message('note_off', channel=0, note=43, velocity=0, time=0),\n",
       "  Message('note_off', channel=0, note=64, velocity=0, time=0.032072269531249996),\n",
       "  Message('note_on', channel=0, note=62, velocity=82, time=0.029605171874999996),\n",
       "  Message('note_on', channel=0, note=55, velocity=67, time=0),\n",
       "  Message('note_on', channel=0, note=43, velocity=72, time=0)],\n",
       " [Message('note_off', channel=0, note=55, velocity=0, time=0),\n",
       "  Message('note_off', channel=0, note=43, velocity=0, time=0),\n",
       "  Message('note_on', channel=0, note=67, velocity=90, time=0.06167744140624999),\n",
       "  Message('note_on', channel=0, note=60, velocity=76, time=0),\n",
       "  Message('note_on', channel=0, note=48, velocity=73, time=0),\n",
       "  Message('note_off', channel=0, note=67, velocity=0, time=0.6019718281249999),\n",
       "  Message('note_on', channel=0, note=67, velocity=84, time=0.029605171874999996)],\n",
       " [Message('note_off', channel=0, note=48, velocity=0, time=0),\n",
       "  Message('note_off', channel=0, note=67, velocity=0, time=0.032072269531249996),\n",
       "  Message('note_on', channel=0, note=65, velocity=84, time=0.029605171874999996),\n",
       "  Message('note_on', channel=0, note=57, velocity=71, time=0),\n",
       "  Message('note_on', channel=0, note=41, velocity=68, time=0),\n",
       "  Message('note_off', channel=0, note=65, velocity=0, time=0.6019718281249999),\n",
       "  Message('note_on', channel=0, note=65, velocity=85, time=0.029605171874999996)],\n",
       " [Message('note_off', channel=0, note=41, velocity=0, time=0),\n",
       "  Message('note_off', channel=0, note=65, velocity=0, time=0.032072269531249996),\n",
       "  Message('note_on', channel=0, note=64, velocity=82, time=0.029605171874999996),\n",
       "  Message('note_on', channel=0, note=55, velocity=70, time=0),\n",
       "  Message('note_on', channel=0, note=43, velocity=73, time=0),\n",
       "  Message('note_off', channel=0, note=64, velocity=0, time=0.6019718281249999),\n",
       "  Message('note_on', channel=0, note=64, velocity=82, time=0.029605171874999996)],\n",
       " [Message('note_off', channel=0, note=43, velocity=0, time=0),\n",
       "  Message('note_off', channel=0, note=64, velocity=0, time=0.032072269531249996),\n",
       "  Message('note_on', channel=0, note=62, velocity=83, time=0.029605171874999996),\n",
       "  Message('note_on', channel=0, note=55, velocity=70, time=0),\n",
       "  Message('note_on', channel=0, note=43, velocity=69, time=0)],\n",
       " [Message('note_off', channel=0, note=55, velocity=0, time=0),\n",
       "  Message('note_off', channel=0, note=43, velocity=0, time=0),\n",
       "  Message('note_on', channel=0, note=60, velocity=82, time=0.06167744140624999),\n",
       "  Message('note_on', channel=0, note=52, velocity=69, time=0),\n",
       "  Message('note_on', channel=0, note=48, velocity=73, time=0),\n",
       "  Message('note_off', channel=0, note=60, velocity=0, time=0.6019718281249999),\n",
       "  Message('note_on', channel=0, note=60, velocity=83, time=0.029605171874999996)],\n",
       " [Message('note_off', channel=0, note=48, velocity=0, time=0),\n",
       "  Message('note_off', channel=0, note=60, velocity=0, time=0.032072269531249996),\n",
       "  Message('note_on', channel=0, note=67, velocity=90, time=0.029605171874999996),\n",
       "  Message('note_on', channel=0, note=60, velocity=80, time=0),\n",
       "  Message('note_on', channel=0, note=48, velocity=72, time=0),\n",
       "  Message('note_off', channel=0, note=67, velocity=0, time=0.6019718281249999),\n",
       "  Message('note_on', channel=0, note=67, velocity=83, time=0.029605171874999996)],\n",
       " [Message('note_off', channel=0, note=48, velocity=0, time=0),\n",
       "  Message('note_off', channel=0, note=67, velocity=0, time=0.032072269531249996),\n",
       "  Message('note_on', channel=0, note=69, velocity=87, time=0.029605171874999996),\n",
       "  Message('note_on', channel=0, note=60, velocity=69, time=0),\n",
       "  Message('note_on', channel=0, note=41, velocity=68, time=0),\n",
       "  Message('note_off', channel=0, note=69, velocity=0, time=0.6019718281249999),\n",
       "  Message('note_on', channel=0, note=69, velocity=81, time=0.029605171874999996)],\n",
       " [Message('note_off', channel=0, note=41, velocity=0, time=0),\n",
       "  Message('note_off', channel=0, note=69, velocity=0, time=0.032072269531249996),\n",
       "  Message('note_on', channel=0, note=67, velocity=79, time=0.029605171874999996),\n",
       "  Message('note_on', channel=0, note=60, velocity=72, time=0),\n",
       "  Message('note_on', channel=0, note=48, velocity=73, time=0)],\n",
       " [Message('note_off', channel=0, note=60, velocity=0, time=0),\n",
       "  Message('note_off', channel=0, note=48, velocity=0, time=0),\n",
       "  Message('note_on', channel=0, note=65, velocity=81, time=0.06167744140624999),\n",
       "  Message('note_on', channel=0, note=57, velocity=69, time=0),\n",
       "  Message('note_on', channel=0, note=41, velocity=68, time=0),\n",
       "  Message('note_off', channel=0, note=65, velocity=0, time=0.6019718281249999),\n",
       "  Message('note_on', channel=0, note=65, velocity=83, time=0.029605171874999996),\n",
       "  Message('note_off', channel=0, note=57, velocity=0, time=0.56989955859375),\n",
       "  Message('note_off', channel=0, note=41, velocity=0, time=0),\n",
       "  Message('note_off', channel=0, note=65, velocity=0, time=0.032072269531249996),\n",
       "  Message('note_on', channel=0, note=64, velocity=81, time=0.029605171874999996),\n",
       "  Message('note_on', channel=0, note=55, velocity=70, time=0),\n",
       "  Message('note_on', channel=0, note=48, velocity=75, time=0)],\n",
       " [Message('note_on', channel=0, note=64, velocity=84, time=0.029605171874999996),\n",
       "  Message('note_off', channel=0, note=55, velocity=0, time=0.56989955859375),\n",
       "  Message('note_off', channel=0, note=48, velocity=0, time=0),\n",
       "  Message('note_off', channel=0, note=64, velocity=0, time=0.032072269531249996),\n",
       "  Message('note_on', channel=0, note=62, velocity=82, time=0.029605171874999996),\n",
       "  Message('note_on', channel=0, note=55, velocity=71, time=0),\n",
       "  Message('note_on', channel=0, note=43, velocity=69, time=0)],\n",
       " [Message('note_on', channel=0, note=62, velocity=83, time=0.029605171874999996),\n",
       "  Message('note_off', channel=0, note=55, velocity=0, time=0.56989955859375),\n",
       "  Message('note_off', channel=0, note=43, velocity=0, time=0),\n",
       "  Message('note_off', channel=0, note=62, velocity=0, time=0.032072269531249996),\n",
       "  Message('note_on', channel=0, note=60, velocity=80, time=0.029605171874999996),\n",
       "  Message('note_on', channel=0, note=52, velocity=70, time=0),\n",
       "  Message('note_on', channel=0, note=48, velocity=74, time=0)],\n",
       " [Message('note_off', channel=0, note=52, velocity=0, time=0),\n",
       "  Message('note_off', channel=0, note=48, velocity=0, time=0),\n",
       "  MetaMessage('end_of_track', time=0.0024670976562499998)]]"
      ]
     },
     "execution_count": 24,
     "metadata": {},
     "output_type": "execute_result"
    }
   ],
   "source": [
    "theMidiFile.measures"
   ]
  },
  {
   "cell_type": "code",
   "execution_count": 25,
   "metadata": {},
   "outputs": [
    {
     "name": "stdout",
     "output_type": "stream",
     "text": [
      "Total number of measures: 24\n",
      "Measure 1\n",
      "11, note_on channel=0 note=60 velocity=77 time=0 MIDI messages\n",
      "12, note_on channel=0 note=52 velocity=63 time=0 MIDI messages\n",
      "18, note_on channel=0 note=48 velocity=64 time=0 MIDI messages\n",
      "19, note_off channel=0 note=60 velocity=0 time=0.6019718281249999 MIDI messages\n",
      "Measure 2\n",
      "0, note_off channel=0 note=52 velocity=0 time=0.56989955859375 MIDI messages\n",
      "1, note_off channel=0 note=48 velocity=0 time=0 MIDI messages\n",
      "2, note_off channel=0 note=60 velocity=0 time=0.032072269531249996 MIDI messages\n",
      "3, note_on channel=0 note=67 velocity=90 time=0.029605171874999996 MIDI messages\n",
      "4, note_on channel=0 note=60 velocity=77 time=0 MIDI messages\n",
      "5, note_on channel=0 note=48 velocity=71 time=0 MIDI messages\n",
      "Measure 3\n",
      "0, note_on channel=0 note=67 velocity=87 time=0.029605171874999996 MIDI messages\n",
      "1, note_off channel=0 note=60 velocity=0 time=0.56989955859375 MIDI messages\n",
      "2, note_off channel=0 note=48 velocity=0 time=0 MIDI messages\n",
      "3, note_off channel=0 note=67 velocity=0 time=0.032072269531249996 MIDI messages\n",
      "Measure 4\n",
      "0, note_on channel=0 note=60 velocity=73 time=0 MIDI messages\n",
      "1, note_on channel=0 note=41 velocity=66 time=0 MIDI messages\n",
      "2, note_off channel=0 note=69 velocity=0 time=0.6019718281249999 MIDI messages\n",
      "3, note_on channel=0 note=69 velocity=83 time=0.029605171874999996 MIDI messages\n",
      "Measure 5\n",
      "0, note_off channel=0 note=41 velocity=0 time=0 MIDI messages\n",
      "1, note_off channel=0 note=69 velocity=0 time=0.032072269531249996 MIDI messages\n",
      "2, note_on channel=0 note=67 velocity=81 time=0.029605171874999996 MIDI messages\n",
      "3, note_on channel=0 note=60 velocity=75 time=0 MIDI messages\n",
      "4, note_on channel=0 note=48 velocity=71 time=0 MIDI messages\n",
      "Measure 6\n",
      "0, note_off channel=0 note=60 velocity=0 time=0 MIDI messages\n",
      "1, note_off channel=0 note=48 velocity=0 time=0 MIDI messages\n",
      "2, note_on channel=0 note=65 velocity=80 time=0.06167744140624999 MIDI messages\n",
      "3, note_on channel=0 note=57 velocity=70 time=0 MIDI messages\n",
      "4, note_on channel=0 note=41 velocity=68 time=0 MIDI messages\n",
      "5, note_off channel=0 note=65 velocity=0 time=0.6019718281249999 MIDI messages\n",
      "6, note_on channel=0 note=65 velocity=85 time=0.029605171874999996 MIDI messages\n",
      "Measure 7\n",
      "0, note_off channel=0 note=41 velocity=0 time=0 MIDI messages\n",
      "1, note_off channel=0 note=65 velocity=0 time=0.032072269531249996 MIDI messages\n",
      "2, note_on channel=0 note=64 velocity=82 time=0.029605171874999996 MIDI messages\n",
      "3, note_on channel=0 note=55 velocity=69 time=0 MIDI messages\n",
      "4, note_on channel=0 note=48 velocity=76 time=0 MIDI messages\n",
      "5, note_off channel=0 note=64 velocity=0 time=0.6019718281249999 MIDI messages\n",
      "6, note_on channel=0 note=64 velocity=84 time=0.029605171874999996 MIDI messages\n",
      "Measure 8\n",
      "0, note_off channel=0 note=48 velocity=0 time=0 MIDI messages\n",
      "1, note_off channel=0 note=64 velocity=0 time=0.032072269531249996 MIDI messages\n",
      "2, note_on channel=0 note=62 velocity=81 time=0.029605171874999996 MIDI messages\n",
      "3, note_on channel=0 note=55 velocity=71 time=0 MIDI messages\n",
      "4, note_on channel=0 note=43 velocity=69 time=0 MIDI messages\n",
      "5, note_off channel=0 note=62 velocity=0 time=0.6019718281249999 MIDI messages\n",
      "6, note_on channel=0 note=62 velocity=83 time=0.029605171874999996 MIDI messages\n",
      "Measure 9\n",
      "0, note_off channel=0 note=43 velocity=0 time=0 MIDI messages\n",
      "1, note_off channel=0 note=62 velocity=0 time=0.032072269531249996 MIDI messages\n",
      "2, note_on channel=0 note=60 velocity=81 time=0.029605171874999996 MIDI messages\n",
      "3, note_on channel=0 note=52 velocity=71 time=0 MIDI messages\n",
      "4, note_on channel=0 note=48 velocity=75 time=0 MIDI messages\n",
      "Measure 10\n",
      "0, note_off channel=0 note=52 velocity=0 time=0 MIDI messages\n",
      "1, note_off channel=0 note=48 velocity=0 time=0 MIDI messages\n",
      "2, note_on channel=0 note=67 velocity=94 time=0.06167744140624999 MIDI messages\n",
      "3, note_on channel=0 note=60 velocity=80 time=0 MIDI messages\n",
      "4, note_on channel=0 note=48 velocity=72 time=0 MIDI messages\n",
      "5, note_off channel=0 note=67 velocity=0 time=0.6019718281249999 MIDI messages\n",
      "6, note_on channel=0 note=67 velocity=83 time=0.029605171874999996 MIDI messages\n",
      "7, note_off channel=0 note=60 velocity=0 time=0.56989955859375 MIDI messages\n",
      "8, note_off channel=0 note=48 velocity=0 time=0 MIDI messages\n",
      "9, note_off channel=0 note=67 velocity=0 time=0.032072269531249996 MIDI messages\n",
      "10, note_on channel=0 note=65 velocity=81 time=0.029605171874999996 MIDI messages\n",
      "11, note_on channel=0 note=57 velocity=71 time=0 MIDI messages\n",
      "12, note_on channel=0 note=41 velocity=68 time=0 MIDI messages\n",
      "Measure 11\n",
      "0, note_on channel=0 note=65 velocity=84 time=0.029605171874999996 MIDI messages\n",
      "1, note_off channel=0 note=57 velocity=0 time=0.56989955859375 MIDI messages\n",
      "2, note_off channel=0 note=41 velocity=0 time=0 MIDI messages\n",
      "3, note_off channel=0 note=65 velocity=0 time=0.032072269531249996 MIDI messages\n",
      "4, note_on channel=0 note=64 velocity=82 time=0.029605171874999996 MIDI messages\n",
      "5, note_on channel=0 note=55 velocity=70 time=0 MIDI messages\n",
      "6, note_on channel=0 note=43 velocity=73 time=0 MIDI messages\n",
      "Measure 12\n",
      "0, note_on channel=0 note=64 velocity=84 time=0.029605171874999996 MIDI messages\n",
      "1, note_off channel=0 note=55 velocity=0 time=0.56989955859375 MIDI messages\n",
      "2, note_off channel=0 note=43 velocity=0 time=0 MIDI messages\n",
      "3, note_off channel=0 note=64 velocity=0 time=0.032072269531249996 MIDI messages\n",
      "4, note_on channel=0 note=62 velocity=82 time=0.029605171874999996 MIDI messages\n",
      "5, note_on channel=0 note=55 velocity=67 time=0 MIDI messages\n",
      "6, note_on channel=0 note=43 velocity=72 time=0 MIDI messages\n",
      "Measure 13\n",
      "0, note_off channel=0 note=55 velocity=0 time=0 MIDI messages\n",
      "1, note_off channel=0 note=43 velocity=0 time=0 MIDI messages\n",
      "2, note_on channel=0 note=67 velocity=90 time=0.06167744140624999 MIDI messages\n",
      "3, note_on channel=0 note=60 velocity=76 time=0 MIDI messages\n",
      "4, note_on channel=0 note=48 velocity=73 time=0 MIDI messages\n",
      "5, note_off channel=0 note=67 velocity=0 time=0.6019718281249999 MIDI messages\n",
      "6, note_on channel=0 note=67 velocity=84 time=0.029605171874999996 MIDI messages\n",
      "Measure 14\n",
      "0, note_off channel=0 note=48 velocity=0 time=0 MIDI messages\n",
      "1, note_off channel=0 note=67 velocity=0 time=0.032072269531249996 MIDI messages\n",
      "2, note_on channel=0 note=65 velocity=84 time=0.029605171874999996 MIDI messages\n",
      "3, note_on channel=0 note=57 velocity=71 time=0 MIDI messages\n",
      "4, note_on channel=0 note=41 velocity=68 time=0 MIDI messages\n",
      "5, note_off channel=0 note=65 velocity=0 time=0.6019718281249999 MIDI messages\n",
      "6, note_on channel=0 note=65 velocity=85 time=0.029605171874999996 MIDI messages\n",
      "Measure 15\n",
      "0, note_off channel=0 note=41 velocity=0 time=0 MIDI messages\n",
      "1, note_off channel=0 note=65 velocity=0 time=0.032072269531249996 MIDI messages\n",
      "2, note_on channel=0 note=64 velocity=82 time=0.029605171874999996 MIDI messages\n",
      "3, note_on channel=0 note=55 velocity=70 time=0 MIDI messages\n",
      "4, note_on channel=0 note=43 velocity=73 time=0 MIDI messages\n",
      "5, note_off channel=0 note=64 velocity=0 time=0.6019718281249999 MIDI messages\n",
      "6, note_on channel=0 note=64 velocity=82 time=0.029605171874999996 MIDI messages\n",
      "Measure 16\n",
      "0, note_off channel=0 note=43 velocity=0 time=0 MIDI messages\n",
      "1, note_off channel=0 note=64 velocity=0 time=0.032072269531249996 MIDI messages\n",
      "2, note_on channel=0 note=62 velocity=83 time=0.029605171874999996 MIDI messages\n",
      "3, note_on channel=0 note=55 velocity=70 time=0 MIDI messages\n",
      "4, note_on channel=0 note=43 velocity=69 time=0 MIDI messages\n",
      "Measure 17\n",
      "0, note_off channel=0 note=55 velocity=0 time=0 MIDI messages\n",
      "1, note_off channel=0 note=43 velocity=0 time=0 MIDI messages\n",
      "2, note_on channel=0 note=60 velocity=82 time=0.06167744140624999 MIDI messages\n",
      "3, note_on channel=0 note=52 velocity=69 time=0 MIDI messages\n",
      "4, note_on channel=0 note=48 velocity=73 time=0 MIDI messages\n",
      "5, note_off channel=0 note=60 velocity=0 time=0.6019718281249999 MIDI messages\n",
      "6, note_on channel=0 note=60 velocity=83 time=0.029605171874999996 MIDI messages\n",
      "Measure 18\n",
      "0, note_off channel=0 note=48 velocity=0 time=0 MIDI messages\n",
      "1, note_off channel=0 note=60 velocity=0 time=0.032072269531249996 MIDI messages\n",
      "2, note_on channel=0 note=67 velocity=90 time=0.029605171874999996 MIDI messages\n",
      "3, note_on channel=0 note=60 velocity=80 time=0 MIDI messages\n",
      "4, note_on channel=0 note=48 velocity=72 time=0 MIDI messages\n",
      "5, note_off channel=0 note=67 velocity=0 time=0.6019718281249999 MIDI messages\n",
      "6, note_on channel=0 note=67 velocity=83 time=0.029605171874999996 MIDI messages\n",
      "Measure 19\n",
      "0, note_off channel=0 note=48 velocity=0 time=0 MIDI messages\n",
      "1, note_off channel=0 note=67 velocity=0 time=0.032072269531249996 MIDI messages\n",
      "2, note_on channel=0 note=69 velocity=87 time=0.029605171874999996 MIDI messages\n",
      "3, note_on channel=0 note=60 velocity=69 time=0 MIDI messages\n",
      "4, note_on channel=0 note=41 velocity=68 time=0 MIDI messages\n",
      "5, note_off channel=0 note=69 velocity=0 time=0.6019718281249999 MIDI messages\n",
      "6, note_on channel=0 note=69 velocity=81 time=0.029605171874999996 MIDI messages\n",
      "Measure 20\n",
      "0, note_off channel=0 note=41 velocity=0 time=0 MIDI messages\n",
      "1, note_off channel=0 note=69 velocity=0 time=0.032072269531249996 MIDI messages\n",
      "2, note_on channel=0 note=67 velocity=79 time=0.029605171874999996 MIDI messages\n",
      "3, note_on channel=0 note=60 velocity=72 time=0 MIDI messages\n",
      "4, note_on channel=0 note=48 velocity=73 time=0 MIDI messages\n",
      "Measure 21\n",
      "0, note_off channel=0 note=60 velocity=0 time=0 MIDI messages\n",
      "1, note_off channel=0 note=48 velocity=0 time=0 MIDI messages\n",
      "2, note_on channel=0 note=65 velocity=81 time=0.06167744140624999 MIDI messages\n",
      "3, note_on channel=0 note=57 velocity=69 time=0 MIDI messages\n",
      "4, note_on channel=0 note=41 velocity=68 time=0 MIDI messages\n",
      "5, note_off channel=0 note=65 velocity=0 time=0.6019718281249999 MIDI messages\n",
      "6, note_on channel=0 note=65 velocity=83 time=0.029605171874999996 MIDI messages\n",
      "7, note_off channel=0 note=57 velocity=0 time=0.56989955859375 MIDI messages\n",
      "8, note_off channel=0 note=41 velocity=0 time=0 MIDI messages\n",
      "9, note_off channel=0 note=65 velocity=0 time=0.032072269531249996 MIDI messages\n",
      "10, note_on channel=0 note=64 velocity=81 time=0.029605171874999996 MIDI messages\n",
      "11, note_on channel=0 note=55 velocity=70 time=0 MIDI messages\n",
      "12, note_on channel=0 note=48 velocity=75 time=0 MIDI messages\n",
      "Measure 22\n",
      "0, note_on channel=0 note=64 velocity=84 time=0.029605171874999996 MIDI messages\n",
      "1, note_off channel=0 note=55 velocity=0 time=0.56989955859375 MIDI messages\n",
      "2, note_off channel=0 note=48 velocity=0 time=0 MIDI messages\n",
      "3, note_off channel=0 note=64 velocity=0 time=0.032072269531249996 MIDI messages\n",
      "4, note_on channel=0 note=62 velocity=82 time=0.029605171874999996 MIDI messages\n",
      "5, note_on channel=0 note=55 velocity=71 time=0 MIDI messages\n",
      "6, note_on channel=0 note=43 velocity=69 time=0 MIDI messages\n",
      "Measure 23\n",
      "0, note_on channel=0 note=62 velocity=83 time=0.029605171874999996 MIDI messages\n",
      "1, note_off channel=0 note=55 velocity=0 time=0.56989955859375 MIDI messages\n",
      "2, note_off channel=0 note=43 velocity=0 time=0 MIDI messages\n",
      "3, note_off channel=0 note=62 velocity=0 time=0.032072269531249996 MIDI messages\n",
      "4, note_on channel=0 note=60 velocity=80 time=0.029605171874999996 MIDI messages\n",
      "5, note_on channel=0 note=52 velocity=70 time=0 MIDI messages\n",
      "6, note_on channel=0 note=48 velocity=74 time=0 MIDI messages\n",
      "Measure 24\n",
      "0, note_off channel=0 note=52 velocity=0 time=0 MIDI messages\n",
      "1, note_off channel=0 note=48 velocity=0 time=0 MIDI messages\n"
     ]
    }
   ],
   "source": [
    "# Now you have a list of measures, each containing four beats\n",
    "print(f\"Total number of measures: {len(theMidiFile.measures)}\")\n",
    "for i, measure in enumerate(theMidiFile.measures):\n",
    "    print(f\"Measure {i+1}\")\n",
    "    for j, beat in enumerate(measure):\n",
    "        if beat.type == 'note_on' or beat.type == 'note_off':\n",
    "            print(f\"{j}, {beat} MIDI messages\")"
   ]
  },
  {
   "cell_type": "markdown",
   "metadata": {},
   "source": [
    "### Save each measure as a separate MIDI file:\n",
    "Finally, you can save each measure into a separate MIDI file."
   ]
  },
  {
   "cell_type": "code",
   "execution_count": 26,
   "metadata": {},
   "outputs": [
    {
     "ename": "ValueError",
     "evalue": "message time must be int in MIDI file",
     "output_type": "error",
     "traceback": [
      "\u001b[0;31m---------------------------------------------------------------------------\u001b[0m",
      "\u001b[0;31mValueError\u001b[0m                                Traceback (most recent call last)",
      "Cell \u001b[0;32mIn[26], line 9\u001b[0m\n\u001b[1;32m      7\u001b[0m new_track\u001b[38;5;241m.\u001b[39mextend(measure)\n\u001b[1;32m      8\u001b[0m mid_count \u001b[38;5;241m+\u001b[39m\u001b[38;5;241m=\u001b[39m \u001b[38;5;241m1\u001b[39m\n\u001b[0;32m----> 9\u001b[0m \u001b[43mnew_mid\u001b[49m\u001b[38;5;241;43m.\u001b[39;49m\u001b[43msave\u001b[49m\u001b[43m(\u001b[49m\u001b[38;5;124;43mf\u001b[39;49m\u001b[38;5;124;43m'\u001b[39;49m\u001b[38;5;124;43mmeasure_\u001b[39;49m\u001b[38;5;132;43;01m{\u001b[39;49;00m\u001b[43mi\u001b[49m\u001b[38;5;241;43m+\u001b[39;49m\u001b[38;5;241;43m1\u001b[39;49m\u001b[38;5;132;43;01m}\u001b[39;49;00m\u001b[38;5;124;43m.mid\u001b[39;49m\u001b[38;5;124;43m'\u001b[39;49m\u001b[43m)\u001b[49m\n",
      "File \u001b[0;32m/Library/Frameworks/Python.framework/Versions/3.11/lib/python3.11/site-packages/mido/midifiles/midifiles.py:458\u001b[0m, in \u001b[0;36mMidiFile.save\u001b[0;34m(self, filename, file)\u001b[0m\n\u001b[1;32m    456\u001b[0m \u001b[38;5;28;01melif\u001b[39;00m filename \u001b[38;5;129;01mis\u001b[39;00m \u001b[38;5;129;01mnot\u001b[39;00m \u001b[38;5;28;01mNone\u001b[39;00m:\n\u001b[1;32m    457\u001b[0m     \u001b[38;5;28;01mwith\u001b[39;00m \u001b[38;5;28mopen\u001b[39m(filename, \u001b[38;5;124m'\u001b[39m\u001b[38;5;124mwb\u001b[39m\u001b[38;5;124m'\u001b[39m) \u001b[38;5;28;01mas\u001b[39;00m file:\n\u001b[0;32m--> 458\u001b[0m         \u001b[38;5;28;43mself\u001b[39;49m\u001b[38;5;241;43m.\u001b[39;49m\u001b[43m_save\u001b[49m\u001b[43m(\u001b[49m\u001b[43mfile\u001b[49m\u001b[43m)\u001b[49m\n\u001b[1;32m    459\u001b[0m \u001b[38;5;28;01melse\u001b[39;00m:\n\u001b[1;32m    460\u001b[0m     \u001b[38;5;28;01mraise\u001b[39;00m \u001b[38;5;167;01mValueError\u001b[39;00m(\u001b[38;5;124m'\u001b[39m\u001b[38;5;124mrequires filename or file\u001b[39m\u001b[38;5;124m'\u001b[39m)\n",
      "File \u001b[0;32m/Library/Frameworks/Python.framework/Versions/3.11/lib/python3.11/site-packages/mido/midifiles/midifiles.py:471\u001b[0m, in \u001b[0;36mMidiFile._save\u001b[0;34m(self, outfile)\u001b[0m\n\u001b[1;32m    468\u001b[0m write_chunk(outfile, \u001b[38;5;124mb\u001b[39m\u001b[38;5;124m'\u001b[39m\u001b[38;5;124mMThd\u001b[39m\u001b[38;5;124m'\u001b[39m, header)\n\u001b[1;32m    470\u001b[0m \u001b[38;5;28;01mfor\u001b[39;00m track \u001b[38;5;129;01min\u001b[39;00m \u001b[38;5;28mself\u001b[39m\u001b[38;5;241m.\u001b[39mtracks:\n\u001b[0;32m--> 471\u001b[0m     \u001b[43mwrite_track\u001b[49m\u001b[43m(\u001b[49m\u001b[43moutfile\u001b[49m\u001b[43m,\u001b[49m\u001b[43m \u001b[49m\u001b[43mtrack\u001b[49m\u001b[43m)\u001b[49m\n",
      "File \u001b[0;32m/Library/Frameworks/Python.framework/Versions/3.11/lib/python3.11/site-packages/mido/midifiles/midifiles.py:244\u001b[0m, in \u001b[0;36mwrite_track\u001b[0;34m(outfile, track)\u001b[0m\n\u001b[1;32m    242\u001b[0m \u001b[38;5;28;01mfor\u001b[39;00m msg \u001b[38;5;129;01min\u001b[39;00m fix_end_of_track(track):\n\u001b[1;32m    243\u001b[0m     \u001b[38;5;28;01mif\u001b[39;00m \u001b[38;5;129;01mnot\u001b[39;00m \u001b[38;5;28misinstance\u001b[39m(msg\u001b[38;5;241m.\u001b[39mtime, Integral):\n\u001b[0;32m--> 244\u001b[0m         \u001b[38;5;28;01mraise\u001b[39;00m \u001b[38;5;167;01mValueError\u001b[39;00m(\u001b[38;5;124m'\u001b[39m\u001b[38;5;124mmessage time must be int in MIDI file\u001b[39m\u001b[38;5;124m'\u001b[39m)\n\u001b[1;32m    245\u001b[0m     \u001b[38;5;28;01mif\u001b[39;00m msg\u001b[38;5;241m.\u001b[39mtime \u001b[38;5;241m<\u001b[39m \u001b[38;5;241m0\u001b[39m:\n\u001b[1;32m    246\u001b[0m         \u001b[38;5;28;01mraise\u001b[39;00m \u001b[38;5;167;01mValueError\u001b[39;00m(\u001b[38;5;124m'\u001b[39m\u001b[38;5;124mmessage time must be non-negative in MIDI file\u001b[39m\u001b[38;5;124m'\u001b[39m)\n",
      "\u001b[0;31mValueError\u001b[0m: message time must be int in MIDI file"
     ]
    }
   ],
   "source": [
    "# Save the measures.mid\n",
    "mid_count = 0\n",
    "for i, measure in enumerate(theMidiFile.measures):\n",
    "    new_mid = mido.MidiFile()\n",
    "    new_track = mido.MidiTrack()\n",
    "    new_mid.tracks.append(new_track)\n",
    "    new_track.extend(measure)\n",
    "    mid_count += 1\n",
    "    new_mid.save(f'measure_{i+1}.mid')"
   ]
  },
  {
   "cell_type": "code",
   "execution_count": 19,
   "metadata": {},
   "outputs": [],
   "source": [
    "# Convert the measures.mid to csv files\n",
    "for i in range(1, mid_count+1):\n",
    "    midi_path = f'midis/TLS-0_measures/measure_{i}.mid'\n",
    "    save_path = f'csvs/TLS-0_measures/measure_{i}.csv'\n",
    "    utils.midi_to_csv(midi_path, save_path)"
   ]
  },
  {
   "cell_type": "code",
   "execution_count": null,
   "metadata": {},
   "outputs": [],
   "source": []
  },
  {
   "cell_type": "code",
   "execution_count": null,
   "metadata": {},
   "outputs": [],
   "source": []
  }
 ],
 "metadata": {
  "kernelspec": {
   "display_name": "Python 3",
   "language": "python",
   "name": "python3"
  },
  "language_info": {
   "codemirror_mode": {
    "name": "ipython",
    "version": 3
   },
   "file_extension": ".py",
   "mimetype": "text/x-python",
   "name": "python",
   "nbconvert_exporter": "python",
   "pygments_lexer": "ipython3",
   "version": "3.11.5"
  }
 },
 "nbformat": 4,
 "nbformat_minor": 2
}
