0, 0, Header, 1, 4, 384
1, 0, Start_track
1, 0, Tempo, 471866
1, 0, Time_signature, 2, 2, 24, 8
1, 384, Tempo, 474982
1, 768, Tempo, 453094
1, 1152, Tempo, 455191
1, 1536, Tempo, 462477
1, 1920, Tempo, 459367
1, 2304, Tempo, 440612
1, 2688, Tempo, 424976
1, 3072, Tempo, 446850
1, 3456, Tempo, 435389
1, 3840, Tempo, 417702
1, 4224, Tempo, 464566
1, 4608, Tempo, 457271
1, 4992, Tempo, 469770
1, 5376, Tempo, 474982
1, 5760, Tempo, 465602
1, 6144, Tempo, 474982
1, 6528, Tempo, 446850
1, 6912, Tempo, 440612
1, 7296, Tempo, 464566
1, 7680, Tempo, 469770
1, 8064, Tempo, 453094
1, 8448, Tempo, 457271
1, 8832, Tempo, 437470
1, 9216, Tempo, 437470
1, 9600, Tempo, 444760
1, 9984, Tempo, 419760
1, 10368, Tempo, 430196
1, 10752, Tempo, 478111
1, 11136, Tempo, 439569
1, 11520, Tempo, 512490
1, 11904, Tempo, 432266
1, 12288, Tempo, 480192
1, 12672, Tempo, 457271
1, 13056, Tempo, 482267
1, 13440, Tempo, 442692
1, 13824, Tempo, 462477
1, 14208, Tempo, 478111
1, 14592, Tempo, 474982
1, 14976, Tempo, 459367
1, 15360, Tempo, 449992
1, 15744, Tempo, 480192
1, 16128, Tempo, 442692
1, 16512, Tempo, 480192
1, 16896, Tempo, 434366
1, 17280, Tempo, 485392
1, 17664, Tempo, 417702
1, 18048, Tempo, 502075
1, 18432, Tempo, 464566
1, 18816, Tempo, 462477
1, 19200, Tempo, 447885
1, 19584, Tempo, 469770
1, 19968, Tempo, 460399
1, 20352, Tempo, 467683
1, 20736, Tempo, 469770
1, 21120, Tempo, 471866
1, 21504, Tempo, 449992
1, 21888, Tempo, 449992
1, 22272, Tempo, 460399
1, 22656, Tempo, 439569
1, 23040, Tempo, 462477
1, 23424, Tempo, 465602
1, 23808, Tempo, 552070
1, 24192, Tempo, 519775
1, 24576, Tempo, 465602
1, 24960, Tempo, 455191
1, 25344, Tempo, 487480
1, 25728, Tempo, 446850
1, 26112, Tempo, 474982
1, 26496, Tempo, 465602
1, 26880, Tempo, 477048
1, 27264, Tempo, 457271
1, 27648, Tempo, 474982
1, 28032, Tempo, 478111
1, 28416, Tempo, 446850
1, 28800, Tempo, 485392
1, 29184, Tempo, 467683
1, 29568, Tempo, 469770
1, 29952, Tempo, 467683
1, 30336, Tempo, 500000
1, 30720, Tempo, 462477
1, 31104, Tempo, 469770
1, 31488, Tempo, 452057
1, 31872, Tempo, 482267
1, 32256, Tempo, 458326
1, 32640, Tempo, 471866
1, 33024, Tempo, 497901
1, 33408, Tempo, 496856
1, 33792, Tempo, 462477
1, 34176, Tempo, 433309
1, 34560, Tempo, 482267
1, 34944, Tempo, 469770
1, 35328, Tempo, 502075
1, 35712, Tempo, 515615
1, 36096, Tempo, 696885
1, 37104, End_track
2, 0, Start_track
2, 0, Title_t, "A.PIANO 1"
2, 72, Control_c, 0, 7, 125
2, 72, Control_c, 0, 10, 64
2, 72, Control_c, 0, 64, 0
2, 72, Control_c, 0, 91, 64
2, 72, Control_c, 0, 93, 0
2, 72, Pitch_bend_c, 0, 8192
2, 72, Program_c, 0, 0
2, 72, Note_on_c, 0, 72, 83
2, 468, Note_off_c, 0, 72, 83
2, 552, Note_on_c, 0, 72, 82
2, 612, Note_off_c, 0, 72, 82
2, 768, Note_on_c, 0, 79, 104
2, 1198, Note_off_c, 0, 79, 104
2, 1330, Note_on_c, 0, 79, 110
2, 1414, Note_off_c, 0, 79, 110
2, 1536, Note_on_c, 0, 81, 115
2, 1952, Note_off_c, 0, 81, 115
2, 2110, Note_on_c, 0, 81, 110
2, 2178, Note_off_c, 0, 81, 110
2, 2304, Note_on_c, 0, 79, 104
2, 2720, Note_off_c, 0, 79, 104
2, 2874, Note_on_c, 0, 79, 101
2, 2888, Note_on_c, 0, 76, 68
2, 2950, Note_off_c, 0, 79, 101
2, 2960, Note_off_c, 0, 76, 68
2, 3256, Note_on_c, 0, 77, 95
2, 3276, Note_on_c, 0, 76, 57
2, 3304, Note_off_c, 0, 77, 95
2, 3326, Note_off_c, 0, 76, 57
2, 3644, Note_on_c, 0, 77, 93
2, 3654, Note_on_c, 0, 74, 74
2, 3702, Note_off_c, 0, 77, 93
2, 3722, Note_off_c, 0, 74, 74
2, 4042, Note_on_c, 0, 74, 61
2, 4042, Note_on_c, 0, 76, 61
2, 4088, Note_off_c, 0, 76, 61
2, 4104, Note_off_c, 0, 74, 61
2, 4424, Note_on_c, 0, 76, 75
2, 4430, Note_on_c, 0, 72, 64
2, 4474, Note_off_c, 0, 76, 75
2, 4484, Note_off_c, 0, 72, 64
2, 4792, Note_on_c, 0, 74, 72
2, 4798, Note_on_c, 0, 72, 62
2, 4832, Note_off_c, 0, 74, 72
2, 4858, Note_off_c, 0, 72, 62
2, 5172, Note_on_c, 0, 74, 61
2, 5180, Note_on_c, 0, 71, 52
2, 5212, Note_off_c, 0, 74, 61
2, 5216, Note_off_c, 0, 71, 52
2, 5376, Note_on_c, 0, 72, 55
2, 5724, Note_off_c, 0, 72, 55
2, 6144, Note_on_c, 0, 72, 74
2, 6522, Note_off_c, 0, 72, 74
2, 6696, Note_on_c, 0, 72, 91
2, 6774, Note_off_c, 0, 72, 91
2, 6912, Note_on_c, 0, 79, 105
2, 7340, Note_off_c, 0, 79, 105
2, 7474, Note_on_c, 0, 79, 107
2, 7568, Note_off_c, 0, 79, 107
2, 7680, Note_on_c, 0, 81, 118
2, 8104, Note_off_c, 0, 81, 118
2, 8240, Note_on_c, 0, 81, 109
2, 8306, Note_off_c, 0, 81, 109
2, 8448, Note_on_c, 0, 79, 109
2, 8852, Note_off_c, 0, 79, 109
2, 9026, Note_on_c, 0, 79, 97
2, 9030, Note_on_c, 0, 76, 68
2, 9072, Note_off_c, 0, 79, 97
2, 9090, Note_off_c, 0, 76, 68
2, 9400, Note_on_c, 0, 77, 94
2, 9418, Note_on_c, 0, 76, 55
2, 9446, Note_off_c, 0, 77, 94
2, 9460, Note_off_c, 0, 76, 55
2, 9782, Note_on_c, 0, 77, 85
2, 9796, Note_on_c, 0, 74, 61
2, 9836, Note_off_c, 0, 74, 61
2, 9836, Note_off_c, 0, 77, 85
2, 10156, Note_on_c, 0, 76, 77
2, 10164, Note_on_c, 0, 74, 61
2, 10198, Note_off_c, 0, 76, 77
2, 10208, Note_off_c, 0, 74, 61
2, 10554, Note_on_c, 0, 76, 70
2, 10556, Note_on_c, 0, 72, 72
2, 10606, Note_off_c, 0, 76, 70
2, 10632, Note_off_c, 0, 72, 72
2, 10936, Note_on_c, 0, 74, 66
2, 10958, Note_on_c, 0, 72, 41
2, 10974, Note_off_c, 0, 74, 66
2, 10996, Note_off_c, 0, 72, 41
2, 11310, Note_on_c, 0, 74, 62
2, 11312, Note_on_c, 0, 71, 48
2, 11350, Note_off_c, 0, 74, 62
2, 11356, Note_off_c, 0, 71, 48
2, 11520, Note_on_c, 0, 72, 70
2, 11938, Note_off_c, 0, 72, 70
2, 12288, Note_on_c, 0, 79, 95
2, 12676, Note_off_c, 0, 79, 95
2, 12860, Note_on_c, 0, 79, 96
2, 13056, Note_on_c, 0, 78, 87
2, 13064, Note_off_c, 0, 79, 96
2, 13476, Note_off_c, 0, 78, 87
2, 13624, Note_on_c, 0, 77, 104
2, 13784, Note_off_c, 0, 77, 104
2, 13824, Note_on_c, 0, 76, 95
2, 14232, Note_off_c, 0, 76, 95
2, 14402, Note_on_c, 0, 75, 92
2, 14580, Note_off_c, 0, 75, 92
2, 14592, Note_on_c, 0, 74, 108
2, 14952, Note_off_c, 0, 74, 108
2, 15150, Note_on_c, 0, 67, 112
2, 15346, Note_off_c, 0, 67, 112
2, 15360, Note_on_c, 0, 79, 120
2, 15760, Note_off_c, 0, 79, 120
2, 15938, Note_on_c, 0, 79, 108
2, 16022, Note_on_c, 0, 78, 109
2, 16032, Note_off_c, 0, 79, 108
2, 16118, Note_off_c, 0, 78, 109
2, 16128, Note_on_c, 0, 77, 118
2, 16538, Note_off_c, 0, 77, 118
2, 16712, Note_on_c, 0, 77, 111
2, 16786, Note_on_c, 0, 76, 99
2, 16808, Note_off_c, 0, 77, 111
2, 16876, Note_off_c, 0, 76, 99
2, 16896, Note_on_c, 0, 75, 109
2, 17416, Note_off_c, 0, 75, 109
2, 17484, Note_on_c, 0, 78, 104
2, 17536, Note_off_c, 0, 78, 104
2, 17578, Note_on_c, 0, 79, 122
2, 17648, Note_off_c, 0, 79, 122
2, 17664, Note_on_c, 0, 74, 109
2, 18076, Note_off_c, 0, 74, 109
2, 18252, Note_on_c, 0, 77, 103
2, 18316, Note_off_c, 0, 77, 103
2, 18336, Note_on_c, 0, 74, 102
2, 18406, Note_off_c, 0, 74, 102
2, 18432, Note_on_c, 0, 72, 102
2, 18756, Note_off_c, 0, 72, 102
2, 19010, Note_on_c, 0, 72, 107
2, 19110, Note_on_c, 0, 76, 101
2, 19128, Note_off_c, 0, 72, 107
2, 19200, Note_on_c, 0, 79, 127
2, 19218, Note_off_c, 0, 76, 101
2, 19488, Note_off_c, 0, 79, 127
2, 19776, Note_on_c, 0, 79, 115
2, 19856, Note_off_c, 0, 79, 115
2, 19876, Note_on_c, 0, 76, 105
2, 19968, Note_off_c, 0, 76, 105
2, 19968, Note_on_c, 0, 81, 127
2, 20286, Note_off_c, 0, 81, 127
2, 20548, Note_on_c, 0, 81, 93
2, 20608, Note_off_c, 0, 81, 93
2, 20642, Note_on_c, 0, 84, 117
2, 20736, Note_off_c, 0, 84, 117
2, 20736, Note_on_c, 0, 79, 111
2, 21044, Note_off_c, 0, 79, 111
2, 21306, Note_on_c, 0, 76, 90
2, 21400, Note_off_c, 0, 76, 90
2, 21410, Note_on_c, 0, 79, 103
2, 21458, Note_off_c, 0, 79, 103
2, 21692, Note_on_c, 0, 79, 87
2, 21794, Note_on_c, 0, 78, 82
2, 21810, Note_off_c, 0, 79, 87
2, 21840, Note_off_c, 0, 78, 82
2, 22088, Note_on_c, 0, 74, 75
2, 22152, Note_off_c, 0, 74, 75
2, 22186, Note_on_c, 0, 77, 104
2, 22224, Note_off_c, 0, 77, 104
2, 22460, Note_on_c, 0, 77, 96
2, 22542, Note_off_c, 0, 77, 96
2, 22580, Note_on_c, 0, 76, 78
2, 22620, Note_off_c, 0, 76, 78
2, 22848, Note_on_c, 0, 79, 95
2, 22958, Note_on_c, 0, 76, 88
2, 22960, Note_off_c, 0, 79, 95
2, 23008, Note_off_c, 0, 76, 88
2, 23238, Note_on_c, 0, 73, 63
2, 23316, Note_off_c, 0, 73, 63
2, 23336, Note_on_c, 0, 74, 79
2, 23376, Note_off_c, 0, 74, 79
2, 23612, Note_on_c, 0, 77, 79
2, 23712, Note_off_c, 0, 77, 79
2, 23712, Note_on_c, 0, 74, 74
2, 23750, Note_off_c, 0, 74, 74
2, 23988, Note_on_c, 0, 71, 27
2, 24046, Note_off_c, 0, 71, 27
2, 24074, Note_on_c, 0, 72, 55
2, 24120, Note_off_c, 0, 72, 55
2, 24576, Note_on_c, 0, 79, 77
2, 24852, Note_off_c, 0, 79, 77
2, 25150, Note_on_c, 0, 79, 90
2, 25326, Note_off_c, 0, 79, 90
2, 25344, Note_on_c, 0, 78, 86
2, 25768, Note_off_c, 0, 78, 86
2, 25920, Note_on_c, 0, 77, 93
2, 26078, Note_off_c, 0, 77, 93
2, 26112, Note_on_c, 0, 76, 91
2, 26548, Note_off_c, 0, 76, 91
2, 26684, Note_on_c, 0, 75, 86
2, 26862, Note_off_c, 0, 75, 86
2, 26880, Note_on_c, 0, 74, 102
2, 27218, Note_off_c, 0, 74, 102
2, 27436, Note_on_c, 0, 67, 99
2, 27622, Note_off_c, 0, 67, 99
2, 27648, Note_on_c, 0, 79, 116
2, 28052, Note_off_c, 0, 79, 116
2, 28230, Note_on_c, 0, 79, 109
2, 28310, Note_on_c, 0, 78, 113
2, 28338, Note_off_c, 0, 79, 109
2, 28408, Note_off_c, 0, 78, 113
2, 28416, Note_on_c, 0, 77, 113
2, 28840, Note_off_c, 0, 77, 113
2, 29012, Note_on_c, 0, 77, 111
2, 29084, Note_on_c, 0, 76, 97
2, 29124, Note_off_c, 0, 77, 111
2, 29168, Note_off_c, 0, 76, 97
2, 29184, Note_on_c, 0, 75, 110
2, 29742, Note_off_c, 0, 75, 110
2, 29760, Note_on_c, 0, 78, 90
2, 29824, Note_off_c, 0, 78, 90
2, 29866, Note_on_c, 0, 79, 99
2, 29928, Note_off_c, 0, 79, 99
2, 29952, Note_on_c, 0, 74, 92
2, 30494, Note_off_c, 0, 74, 92
2, 30536, Note_on_c, 0, 77, 77
2, 30598, Note_off_c, 0, 77, 77
2, 30616, Note_on_c, 0, 74, 88
2, 30698, Note_off_c, 0, 74, 88
2, 30720, Note_on_c, 0, 72, 99
2, 31080, Note_off_c, 0, 72, 99
2, 31310, Note_on_c, 0, 72, 102
2, 31404, Note_on_c, 0, 76, 86
2, 31426, Note_off_c, 0, 72, 102
2, 31472, Note_off_c, 0, 76, 86
2, 31488, Note_on_c, 0, 79, 116
2, 31800, Note_off_c, 0, 79, 116
2, 32078, Note_on_c, 0, 79, 115
2, 32148, Note_off_c, 0, 79, 115
2, 32172, Note_on_c, 0, 76, 110
2, 32256, Note_off_c, 0, 76, 110
2, 32256, Note_on_c, 0, 81, 127
2, 32578, Note_off_c, 0, 81, 127
2, 32840, Note_on_c, 0, 81, 109
2, 32912, Note_off_c, 0, 81, 109
2, 32936, Note_on_c, 0, 84, 127
2, 33024, Note_on_c, 0, 79, 126
2, 33036, Note_off_c, 0, 84, 127
2, 33320, Note_off_c, 0, 79, 126
2, 33588, Note_on_c, 0, 76, 95
2, 33680, Note_on_c, 0, 79, 110
2, 33684, Note_off_c, 0, 76, 95
2, 33740, Note_off_c, 0, 79, 110
2, 33984, Note_on_c, 0, 79, 88
2, 34078, Note_on_c, 0, 78, 81
2, 34088, Note_off_c, 0, 79, 88
2, 34116, Note_off_c, 0, 78, 81
2, 34366, Note_on_c, 0, 74, 72
2, 34424, Note_off_c, 0, 74, 72
2, 34472, Note_on_c, 0, 77, 96
2, 34534, Note_off_c, 0, 77, 96
2, 34750, Note_on_c, 0, 77, 79
2, 34840, Note_off_c, 0, 77, 79
2, 34854, Note_on_c, 0, 76, 70
2, 34908, Note_off_c, 0, 76, 70
2, 35132, Note_on_c, 0, 79, 80
2, 35236, Note_on_c, 0, 76, 79
2, 35240, Note_off_c, 0, 79, 80
2, 35290, Note_off_c, 0, 76, 79
2, 35518, Note_on_c, 0, 73, 53
2, 35588, Note_off_c, 0, 73, 53
2, 35602, Note_on_c, 0, 74, 75
2, 35662, Note_off_c, 0, 74, 75
2, 35900, Note_on_c, 0, 77, 75
2, 36002, Note_off_c, 0, 77, 75
2, 36008, Note_on_c, 0, 74, 70
2, 36056, Note_off_c, 0, 74, 70
2, 36254, Note_on_c, 0, 71, 39
2, 36304, Note_off_c, 0, 71, 39
2, 36348, Note_on_c, 0, 72, 45
2, 36396, Note_off_c, 0, 72, 45
2, 36588, End_track
3, 0, Start_track
3, 0, Title_t, "A.PIANO 1"
3, 72, Program_c, 1, 0
3, 72, Pitch_bend_c, 1, 8192
3, 72, Control_c, 1, 93, 0
3, 72, Control_c, 1, 91, 64
3, 72, Control_c, 1, 64, 0
3, 72, Control_c, 1, 10, 64
3, 72, Control_c, 1, 7, 125
3, 194, Note_on_c, 1, 60, 70
3, 232, Note_off_c, 1, 60, 70
3, 384, Note_on_c, 1, 64, 74
3, 656, Note_off_c, 1, 64, 74
3, 940, Note_on_c, 1, 64, 75
3, 978, Note_off_c, 1, 64, 75
3, 1152, Note_on_c, 1, 60, 93
3, 1464, Note_off_c, 1, 60, 93
3, 1730, Note_on_c, 1, 65, 82
3, 1796, Note_off_c, 1, 65, 82
3, 1920, Note_on_c, 1, 60, 101
3, 2178, Note_off_c, 1, 60, 101
3, 2484, Note_on_c, 1, 64, 65
3, 2524, Note_off_c, 1, 64, 65
3, 2688, Note_on_c, 1, 60, 80
3, 2792, Note_off_c, 1, 60, 80
3, 3072, Note_on_c, 1, 62, 80
3, 3150, Note_off_c, 1, 62, 80
3, 3456, Note_on_c, 1, 59, 84
3, 3524, Note_off_c, 1, 59, 84
3, 3840, Note_on_c, 1, 60, 82
3, 3904, Note_off_c, 1, 60, 82
3, 4224, Note_on_c, 1, 57, 76
3, 4284, Note_off_c, 1, 57, 76
3, 4608, Note_on_c, 1, 53, 66
3, 4684, Note_off_c, 1, 53, 66
3, 4992, Note_on_c, 1, 55, 75
3, 5048, Note_off_c, 1, 55, 75
3, 5540, Note_on_c, 1, 60, 59
3, 5580, Note_off_c, 1, 60, 59
3, 5760, Note_on_c, 1, 48, 63
3, 5978, Note_off_c, 1, 48, 63
3, 6312, Note_on_c, 1, 60, 82
3, 6370, Note_off_c, 1, 60, 82
3, 6528, Note_on_c, 1, 64, 68
3, 6848, Note_off_c, 1, 64, 68
3, 7108, Note_on_c, 1, 64, 71
3, 7176, Note_off_c, 1, 64, 71
3, 7296, Note_on_c, 1, 60, 95
3, 7602, Note_off_c, 1, 60, 95
3, 7860, Note_on_c, 1, 65, 86
3, 7938, Note_off_c, 1, 65, 86
3, 8064, Note_on_c, 1, 60, 87
3, 8304, Note_off_c, 1, 60, 87
3, 8620, Note_on_c, 1, 64, 73
3, 8696, Note_off_c, 1, 64, 73
3, 8832, Note_on_c, 1, 60, 71
3, 8960, Note_off_c, 1, 60, 71
3, 9216, Note_on_c, 1, 62, 75
3, 9294, Note_off_c, 1, 62, 75
3, 9600, Note_on_c, 1, 59, 70
3, 9640, Note_off_c, 1, 59, 70
3, 9984, Note_on_c, 1, 60, 67
3, 10050, Note_off_c, 1, 60, 67
3, 10368, Note_on_c, 1, 57, 69
3, 10410, Note_off_c, 1, 57, 69
3, 10752, Note_on_c, 1, 53, 66
3, 10790, Note_off_c, 1, 53, 66
3, 11136, Note_on_c, 1, 55, 56
3, 11174, Note_off_c, 1, 55, 56
3, 11686, Note_on_c, 1, 60, 61
3, 11720, Note_off_c, 1, 60, 61
3, 11904, Note_on_c, 1, 48, 50
3, 12094, Note_off_c, 1, 48, 50
3, 12466, Note_on_c, 1, 64, 55
3, 12506, Note_off_c, 1, 64, 55
3, 12672, Note_on_c, 1, 55, 57
3, 12884, Note_off_c, 1, 55, 57
3, 13240, Note_on_c, 1, 62, 66
3, 13278, Note_off_c, 1, 62, 66
3, 13440, Note_on_c, 1, 55, 70
3, 13712, Note_off_c, 1, 55, 70
3, 14016, Note_on_c, 1, 60, 60
3, 14056, Note_off_c, 1, 60, 60
3, 14208, Note_on_c, 1, 55, 79
3, 14456, Note_off_c, 1, 55, 79
3, 14780, Note_on_c, 1, 59, 75
3, 14852, Note_off_c, 1, 59, 75
3, 14976, Note_on_c, 1, 55, 99
3, 15156, Note_off_c, 1, 55, 99
3, 15544, Note_on_c, 1, 64, 91
3, 15620, Note_off_c, 1, 64, 91
3, 15744, Note_on_c, 1, 55, 100
3, 15996, Note_off_c, 1, 55, 100
3, 16320, Note_on_c, 1, 62, 87
3, 16396, Note_off_c, 1, 62, 87
3, 16512, Note_on_c, 1, 55, 106
3, 16786, Note_off_c, 1, 55, 106
3, 17096, Note_on_c, 1, 60, 93
3, 17172, Note_off_c, 1, 60, 93
3, 17280, Note_on_c, 1, 55, 107
3, 17546, Note_off_c, 1, 55, 107
3, 17864, Note_on_c, 1, 59, 82
3, 17928, Note_off_c, 1, 59, 82
3, 18048, Note_on_c, 1, 55, 95
3, 18204, Note_off_c, 1, 55, 95
3, 18628, Note_on_c, 1, 48, 81
3, 18716, Note_on_c, 1, 52, 95
3, 18722, Note_off_c, 1, 48, 81
3, 18804, Note_off_c, 1, 52, 95
3, 18816, Note_on_c, 1, 55, 100
3, 19002, Note_off_c, 1, 55, 100
3, 19396, Note_on_c, 1, 60, 88
3, 19484, Note_off_c, 1, 60, 88
3, 19496, Note_on_c, 1, 64, 104
3, 19580, Note_off_c, 1, 64, 104
3, 19584, Note_on_c, 1, 67, 109
3, 19858, Note_off_c, 1, 67, 109
3, 20152, Note_on_c, 1, 65, 84
3, 20242, Note_on_c, 1, 69, 100
3, 20268, Note_off_c, 1, 65, 84
3, 20352, Note_on_c, 1, 60, 92
3, 20360, Note_off_c, 1, 69, 100
3, 20652, Note_off_c, 1, 60, 92
3, 20906, Note_on_c, 1, 64, 80
3, 21002, Note_off_c, 1, 64, 80
3, 21016, Note_on_c, 1, 67, 82
3, 21116, Note_off_c, 1, 67, 82
3, 21120, Note_on_c, 1, 60, 93
3, 21252, Note_off_c, 1, 60, 93
3, 21504, Note_on_c, 1, 62, 95
3, 21586, Note_off_c, 1, 62, 95
3, 21888, Note_on_c, 1, 59, 75
3, 21926, Note_off_c, 1, 59, 75
3, 22272, Note_on_c, 1, 60, 88
3, 22350, Note_off_c, 1, 60, 88
3, 22656, Note_on_c, 1, 52, 91
3, 22712, Note_off_c, 1, 52, 91
3, 23040, Note_on_c, 1, 53, 77
3, 23104, Note_off_c, 1, 53, 77
3, 23424, Note_on_c, 1, 55, 71
3, 23462, Note_off_c, 1, 55, 71
3, 23808, Note_on_c, 1, 60, 76
3, 23838, Note_off_c, 1, 60, 76
3, 24192, Note_on_c, 1, 48, 53
3, 24440, Note_off_c, 1, 48, 53
3, 24764, Note_on_c, 1, 64, 43
3, 24806, Note_off_c, 1, 64, 43
3, 24960, Note_on_c, 1, 55, 62
3, 25212, Note_off_c, 1, 55, 62
3, 25526, Note_on_c, 1, 62, 55
3, 25562, Note_off_c, 1, 62, 55
3, 25728, Note_on_c, 1, 55, 64
3, 26052, Note_off_c, 1, 55, 64
3, 26304, Note_on_c, 1, 60, 57
3, 26342, Note_off_c, 1, 60, 57
3, 26496, Note_on_c, 1, 55, 68
3, 26756, Note_off_c, 1, 55, 68
3, 27066, Note_on_c, 1, 59, 73
3, 27128, Note_off_c, 1, 59, 73
3, 27264, Note_on_c, 1, 55, 97
3, 27450, Note_off_c, 1, 55, 97
3, 27824, Note_on_c, 1, 64, 90
3, 27896, Note_off_c, 1, 64, 90
3, 28032, Note_on_c, 1, 55, 100
3, 28290, Note_off_c, 1, 55, 100
3, 28612, Note_on_c, 1, 62, 89
3, 28680, Note_off_c, 1, 62, 89
3, 28800, Note_on_c, 1, 55, 100
3, 29066, Note_off_c, 1, 55, 100
3, 29394, Note_on_c, 1, 60, 75
3, 29434, Note_off_c, 1, 60, 75
3, 29568, Note_on_c, 1, 55, 96
3, 29736, Note_off_c, 1, 55, 96
3, 30142, Note_on_c, 1, 59, 70
3, 30208, Note_off_c, 1, 59, 70
3, 30336, Note_on_c, 1, 55, 81
3, 30472, Note_off_c, 1, 55, 81
3, 30912, Note_on_c, 1, 48, 65
3, 30986, Note_off_c, 1, 48, 65
3, 31002, Note_on_c, 1, 52, 82
3, 31054, Note_off_c, 1, 52, 82
3, 31104, Note_on_c, 1, 55, 91
3, 31296, Note_off_c, 1, 55, 91
3, 31694, Note_on_c, 1, 60, 88
3, 31774, Note_off_c, 1, 60, 88
3, 31790, Note_on_c, 1, 64, 89
3, 31872, Note_on_c, 1, 67, 108
3, 31880, Note_off_c, 1, 64, 89
3, 32150, Note_off_c, 1, 67, 108
3, 32458, Note_on_c, 1, 65, 86
3, 32512, Note_off_c, 1, 65, 86
3, 32538, Note_on_c, 1, 69, 102
3, 32640, Note_on_c, 1, 60, 101
3, 32662, Note_off_c, 1, 69, 102
3, 32924, Note_off_c, 1, 60, 101
3, 33196, Note_on_c, 1, 64, 76
3, 33268, Note_off_c, 1, 64, 76
3, 33298, Note_on_c, 1, 67, 98
3, 33392, Note_off_c, 1, 67, 98
3, 33408, Note_on_c, 1, 60, 97
3, 33582, Note_off_c, 1, 60, 97
3, 33792, Note_on_c, 1, 62, 81
3, 33870, Note_off_c, 1, 62, 81
3, 34176, Note_on_c, 1, 59, 72
3, 34220, Note_off_c, 1, 59, 72
3, 34560, Note_on_c, 1, 60, 82
3, 34632, Note_off_c, 1, 60, 82
3, 34944, Note_on_c, 1, 52, 81
3, 34980, Note_off_c, 1, 52, 81
3, 35328, Note_on_c, 1, 53, 68
3, 35360, Note_off_c, 1, 53, 68
3, 35712, Note_on_c, 1, 55, 61
3, 35766, Note_off_c, 1, 55, 61
3, 36096, Note_on_c, 1, 60, 65
3, 36120, Note_off_c, 1, 60, 65
3, 36480, Note_on_c, 1, 48, 47
3, 36912, Note_off_c, 1, 48, 47
3, 37104, End_track
4, 0, Start_track
4, 0, Title_t, "GS/RESET"
4, 0, System_exclusive, 0A, 41, 10, 42, 12, 40, 00, 7F, 00, 41, F7
4, 6144, End_track
0, 0, End_of_file